<?xml version="1.0" encoding="UTF-8" standalone="no"?>
<svg
   width="800"
   height="800"
   fill="none"
   version="1.1"
   id="svg3"
   sodipodi:docname="processing3blank.svg"
   inkscape:version="1.3.2 (091e20e, 2023-11-25, custom)"
   xmlns:inkscape="http://www.inkscape.org/namespaces/inkscape"
   xmlns:sodipodi="http://sodipodi.sourceforge.net/DTD/sodipodi-0.dtd"
   xmlns="http://www.w3.org/2000/svg"
   xmlns:svg="http://www.w3.org/2000/svg">
  <defs
     id="defs3" />
  <sodipodi:namedview
     id="namedview3"
     pagecolor="#ffffff"
     bordercolor="#000000"
     borderopacity="0.25"
     inkscape:showpageshadow="2"
     inkscape:pageopacity="0.0"
     inkscape:pagecheckerboard="0"
     inkscape:deskcolor="#d1d1d1"
     inkscape:zoom="1.136875"
     inkscape:cx="384.38703"
     inkscape:cy="317.97691"
     inkscape:window-width="3840"
     inkscape:window-height="2054"
     inkscape:window-x="1717"
     inkscape:window-y="175"
     inkscape:window-maximized="1"
     inkscape:current-layer="svg3" />
  <path
     stroke="#0468ff"
     stroke-width="159.079"
     d="m 437.86878,598.30367 c 317.64184,0 357.368,-370.55424 119.17846,-463.24163 -34.04757,-13.24903 -73.77372,-20.82047 -119.17846,-20.82047"
     id="path1"
     inkscape:highlight-color="#ffaaaa"
     sodipodi:nodetypes="csc" />
  <path
     stroke="#1f34ab"
     stroke-width="159.079"
     d="M 437.86878,235.2571 74.822203,719.31919"
     id="path2" />
  <path
     stroke="#85aeff"
     stroke-width="159.079"
     d="M 74.822203,356.27262 195.83773,598.30367"
     id="path3"
     style="fill:#ffffff;fill-opacity:1" />
  <path
     style="fill:#ffffff;fill-opacity:1;stroke-width:0.879604;stroke:#000000;stroke-opacity:1"
     d="m 438.48268,598.67644 v -79.05858 l 11.21496,-0.59779 c 26.06935,-1.3896 47.31841,-4.94661 66.90093,-11.19895 61.85352,-19.74872 102.23631,-65.06638 112.45802,-126.20069 2.1167,-12.65966 2.10802,-38.33747 -0.0172,-50.88926 -7.35824,-43.45849 -30.34808,-79.823 -65.31472,-103.31247 -31.68619,-21.28577 -65.28969,-31.1486 -115.78624,-33.98394 l -9.45575,-0.53093 V 113.87806 34.852297 l 11.21496,0.424057 c 25.98145,0.982403 46.48846,3.102636 67.94942,7.025335 135.0087,24.677302 235.0447,117.225651 263.75111,244.009471 10.24734,45.25803 10.2471,94.58575 -6.7e-4,139.85706 -13.27862,58.66066 -43.20488,112.75527 -85.10445,153.83458 -53.94346,52.88739 -124.5777,85.05848 -207.67293,94.58675 -9.3718,1.07463 -40.28208,3.06753 -48.59813,3.1333 -1.45468,0.0115 -1.53931,-4.33429 -1.53931,-79.04641 z"
     id="path4" />
  <path
     style="fill:#ffffff;fill-opacity:1;stroke-width:0.879604;stroke:#000000;stroke-opacity:1"
     d="M 74.59734,718.50174 11.976429,671.43501 51.242314,619.08338 90.5082,566.73175 l 16.98012,33.9513 16.9801,33.95129 71.24573,-35.625 c 39.18515,-19.59376 71.24572,-36.02135 71.24572,-36.50577 0,-0.48441 -15.46926,-31.81725 -34.37612,-69.62853 -25.42324,-50.84317 -34.18567,-69.14441 -33.64486,-70.27073 1.96301,-4.08827 175.03138,-233.81149 175.92066,-233.50922 0.56528,0.19214 29.11654,21.41554 63.44727,47.1631 l 62.4195,46.81377 -180.87443,241.27297 c -99.48093,132.70014 -181.27025,241.26185 -181.75403,241.24825 -0.48379,-0.0136 -29.05902,-21.20474 -63.50052,-47.09144 z"
     id="path5" />
  <path
     style="fill:#ffffff;fill-opacity:1;stroke-width:0.879604;stroke:#000000;stroke-opacity:1"
     d="M 64.869306,512.80838 C 31.85199,446.77162 4.837823,392.54452 4.837823,392.30369 c 0,-0.54313 140.836367,-71.01064 141.177227,-70.63805 0.47765,0.52211 120.06521,239.9648 120.06521,240.39906 0,0.36127 -140.23676,70.81051 -140.9559,70.81051 -0.12297,0 -27.237741,-54.03008 -60.255054,-120.06683 z"
     id="path6" />
</svg>
